<?xml version="1.0" encoding="UTF-8" standalone="no"?>
<!-- Created with Inkscape (http://www.inkscape.org/) -->

<svg
   width="60mm"
   height="50mm"
   viewBox="0 0 60 50"
   version="1.1"
   id="svg1"
   inkscape:export-filename="waivops_logo.png.png"
   inkscape:export-xdpi="96"
   inkscape:export-ydpi="96"
   inkscape:version="1.4 (e7c3feb100, 2024-10-09)"
   sodipodi:docname="waivops_logo.svg"
   xmlns:inkscape="http://www.inkscape.org/namespaces/inkscape"
   xmlns:sodipodi="http://sodipodi.sourceforge.net/DTD/sodipodi-0.dtd"
   xmlns="http://www.w3.org/2000/svg"
   xmlns:svg="http://www.w3.org/2000/svg">
  <sodipodi:namedview
     id="namedview1"
     pagecolor="#ffffff"
     bordercolor="#000000"
     borderopacity="0.25"
     inkscape:showpageshadow="2"
     inkscape:pageopacity="0.0"
     inkscape:pagecheckerboard="0"
     inkscape:deskcolor="#d1d1d1"
     inkscape:document-units="mm"
     inkscape:zoom="2.2123078"
     inkscape:cx="98.539635"
     inkscape:cy="132.44089"
     inkscape:window-width="1920"
     inkscape:window-height="1131"
     inkscape:window-x="0"
     inkscape:window-y="0"
     inkscape:window-maximized="1"
     inkscape:current-layer="layer1" />
  <defs
     id="defs1" />
  <g
     inkscape:label="Capa 1"
     inkscape:groupmode="layer"
     id="layer1">
    <path
       d="m 30.819253,4.0886109 c -9.301471,0 -16.842057,7.5402801 -16.842057,16.8420591 0,9.301778 7.540278,16.842058 16.842057,16.842058 4.466718,0 8.750653,-1.774401 11.908999,-4.933054 3.158346,-3.158655 4.933053,-7.442283 4.933053,-11.909004 C 47.660996,11.629199 40.120719,4.0886109 30.819253,4.0886109 Z m -1.500077,5.1748223 c 1.042955,0 1.430034,0.7007285 1.499768,0.7603258 0.07001,-0.059904 0.583681,-0.7603258 1.500377,-0.7603258 1.127734,0 2.597086,0.6380593 3.940789,1.7080448 0.806401,0.346525 1.372884,1.148322 1.372884,2.080374 3.08e-4,0.288549 -0.05457,0.57449 -0.161898,0.842349 1.393477,0.270338 2.449324,1.49884 2.449324,2.970031 2.84e-4,0.304623 -0.04581,0.607513 -0.136697,0.89826 0.576137,0.567638 0.900208,1.342851 0.899482,2.151645 6.17e-4,0.612567 -0.185696,1.210739 -0.534224,1.714496 0.349905,0.505655 0.534224,1.095483 0.534224,1.716647 0,1.10009 -0.599961,2.108329 -1.549835,2.640096 0.01635,0.13599 0.02453,0.272837 0.02453,0.409808 0,1.484094 -0.967989,2.796463 -2.372831,3.243441 -0.611026,1.045717 -1.724324,1.675175 -2.94115,1.688692 -1.87363,0.02119 -2.953133,-1.786689 -3.02502,-1.865026 -0.07159,0.07834 -1.298543,1.865026 -3.025015,1.865026 -1.216835,0 -2.329825,-0.643282 -2.94085,-1.688692 -1.404834,-0.447286 -2.37314,-1.759347 -2.37314,-3.243441 1.09e-4,-0.136977 0.0084,-0.273825 0.02487,-0.409808 -0.955923,-0.535078 -1.54844,-1.544608 -1.549525,-2.640096 0,-0.621164 0.184628,-1.210992 0.534224,-1.716647 -0.348528,-0.503757 -0.534908,-1.101929 -0.534224,-1.714496 -6.17e-4,-0.808794 0.323345,-1.584007 0.89949,-2.151645 -0.0911,-0.290715 -0.137407,-0.593606 -0.137323,-0.89826 0,-1.471191 1.056164,-2.699693 2.449633,-2.970031 -0.107292,-0.267859 -0.162248,-0.5538 -0.161898,-0.842349 0,-0.932052 0.566175,-1.733542 1.372884,-2.080374 1.343703,-1.0699855 2.81336,-1.7080448 3.941094,-1.7080448 z m 0,0.7148597 c -0.717007,0 -1.614958,0.3164181 -2.527348,0.8727621 0.458657,0.110286 1.00916,0.657413 1.302536,0.976903 0.108134,-0.03471 0.223028,-0.05406 0.342228,-0.05406 0.595971,0 1.092403,0.471248 1.092403,1.058311 0,0.587065 -0.496432,1.058927 -1.092403,1.058927 -0.595977,0 -1.092717,-0.47217 -1.092717,-1.058927 0,-0.219034 0.06909,-0.421788 0.187081,-0.590135 -0.250365,-0.244533 -0.811315,-0.738821 -1.261987,-0.738821 -0.19323,0 -0.378159,0.03594 -0.548659,0.101069 -0.01994,0.01026 -0.0408,0.01859 -0.06233,0.02488 -0.551121,0.237467 -0.937882,0.785516 -0.937882,1.422653 -6.18e-4,0.279396 0.07477,0.553704 0.218113,0.793505 1.497298,0.09554 1.546455,1.229116 1.640154,1.401456 0.04673,-0.01106 0.09462,-0.01935 0.143456,-0.02458 0.592902,-0.06236 1.135728,0.354819 1.197168,0.938811 0.06141,0.583991 -0.383074,1.104699 -0.975975,1.167061 -0.592901,0.06237 -1.135728,-0.354819 -1.197167,-0.93881 -0.03254,-0.310582 0.07835,-0.603346 0.278018,-0.819001 -0.175416,-0.285391 -0.152986,-1.01684 -1.280119,-1.01684 -1.274579,0 -2.311384,1.036501 -2.311384,2.310775 -10e-5,0.297553 0.05758,0.592292 0.169883,0.867847 0.05858,0.143778 0.01736,0.308927 -0.101993,0.408272 -0.527773,0.441143 -0.830365,1.087804 -0.830365,1.773786 0.0067,0.655877 0.139776,1.044488 0.450663,1.442929 0.382464,0.490602 0.630075,0.815622 1.203926,0.806099 0.24545,-0.492752 0.848798,-0.711788 1.375954,-0.498896 0.552665,0.223335 0.836206,0.846649 0.616558,1.390704 -0.219649,0.544056 -0.857093,0.795654 -1.40944,0.572318 -0.354111,-0.141935 -0.609724,-0.456797 -0.675845,-0.832518 -0.577848,-0.03656 -0.669394,-0.189237 -1.248777,-0.611333 -0.206114,0.352426 -0.314191,0.75357 -0.313039,1.16184 0,0.911468 0.539747,1.739993 1.374727,2.111093 0.153295,0.0682 0.238699,0.233781 0.205213,0.398134 -0.03613,0.177851 -0.0544,0.358881 -0.0544,0.54037 0,1.213142 0.819309,2.281284 1.992211,2.596781 0.09615,0.02581 0.176642,0.09124 0.223028,0.179098 0.46787,0.889351 1.381178,1.441393 2.383279,1.441393 1.486037,-0.0023 2.690222,-1.206275 2.692926,-2.69232 -0.0017,-1.216457 -0.818842,-2.2807 -1.993438,-2.597088 -0.190827,-0.05068 -0.304069,-0.246861 -0.252517,-0.437457 0.05132,-0.190465 0.247602,-0.30413 0.438071,-0.253134 0.799958,0.236238 1.536625,0.926215 2.044739,1.567653 0.06575,0.07895 0.127794,0.07342 0.19016,3.08e-4 0.532379,-0.591058 1.135728,-1.353534 2.045657,-1.567654 0.190468,-0.05099 0.386461,0.06175 0.437762,0.25252 0.05132,0.190773 -0.06175,0.386461 -0.252209,0.437764 -1.174595,0.316388 -1.991468,1.380631 -1.993437,2.597088 0,1.484708 1.207614,2.69232 2.692629,2.69232 1.002093,0 1.915401,-0.55235 2.383271,-1.4417 0.04639,-0.08817 0.127493,-0.152986 0.223645,-0.179098 1.172902,-0.315805 1.992212,-1.38364 1.992212,-2.596781 -9e-6,-0.181489 -0.01819,-0.362519 -0.05441,-0.54037 -0.03346,-0.164353 0.0519,-0.329934 0.204905,-0.398134 0.834604,-0.370756 1.372958,-1.197844 1.374118,-2.111094 0,-0.414416 -0.107217,-0.846342 -0.31243,-1.197475 -0.587978,0.544363 -0.836816,0.648197 -1.605132,0.896109 -0.09584,0.352669 -0.38738,0.607033 -0.766465,0.719161 -0.571706,0.168961 -1.181505,-0.142849 -1.348008,-0.705644 -0.166504,-0.562794 0.176033,-1.156002 0.747731,-1.324963 0.544979,-0.160974 1.12498,0.115201 1.321891,0.62915 0,0 1.050331,-0.228865 1.51205,-1.004551 0.258668,-0.434384 0.443604,-0.787053 0.450363,-1.442929 0,-0.685983 -0.302592,-1.332644 -0.830366,-1.773786 -0.119307,-0.09934 -0.160562,-0.264494 -0.101993,-0.408272 0.112382,-0.275534 0.170184,-0.570274 0.170192,-0.867847 0,-1.274275 -1.037122,-2.310775 -2.3117,-2.310775 -1.126816,0 -1.04172,0.475857 -1.206998,0.767084 0.207358,0.208284 0.328093,0.497053 0.306281,0.808556 -0.04089,0.585528 -0.569245,1.021448 -1.163682,0.979976 -0.594436,-0.04147 -1.057082,-0.54682 -1.015919,-1.132348 0.04114,-0.585528 0.569245,-1.021448 1.163681,-0.979975 0.0484,0.0034 0.09653,0.01 0.144083,0.01966 0,0 0.08111,-1.075515 1.578405,-1.171055 0.143373,-0.239801 0.218773,-0.514108 0.218114,-0.793504 0,-0.637137 -0.38677,-1.185186 -0.937891,-1.422654 -0.0212,-0.0064 -0.04206,-0.01474 -0.06208,-0.02519 -0.170801,-0.06482 -0.355737,-0.100763 -0.548659,-0.100763 -0.450972,0 -1.012231,0.494595 -1.262295,0.738822 0.117656,0.168347 0.18678,0.3711 0.18678,0.590135 0,0.587063 -0.49644,1.058926 -1.092412,1.058926 -0.595972,0 -1.092721,-0.471863 -1.092721,-1.058926 0,-0.587064 0.496749,-1.058312 1.092721,-1.058312 0.119191,0 0.234085,0.01935 0.34222,0.05407 0.29338,-0.31949 0.8445,-0.866618 1.303149,-0.976903 -0.912391,-0.556651 -1.810337,-0.8724551 -2.527352,-0.8724551 -0.643894,0 -1.176582,0.4362271 -1.167671,1.1673691 v 0.45128 c 0,0 -0.101993,0.238082 -0.335777,0.235624 -0.2519,-0.0028 -0.328702,-0.235624 -0.328702,-0.235624 v -0.45128 c 0.01752,-0.546202 -0.523792,-1.1673651 -1.167685,-1.1673651 z m -0.882284,2.2450341 c -0.362492,0 -0.642354,0.27464 -0.642354,0.608568 0,0.33393 0.280171,0.608875 0.642354,0.608875 0.362196,0 0.642667,-0.274945 0.642667,-0.608875 0,-0.333928 -0.280471,-0.608568 -0.642667,-0.608568 z m 4.764404,0 c -0.362496,0 -0.642358,0.27464 -0.642358,0.608568 0,0.33393 0.280162,0.608875 0.642358,0.608875 0.362188,0 0.642667,-0.274945 0.642667,-0.608875 0,-0.333928 -0.280479,-0.608568 -0.642667,-0.608568 z m 1.7446,3.221631 c -0.361578,-0.02519 -0.659873,0.22948 -0.68322,0.562487 -0.02337,0.333008 0.236855,0.626693 0.598433,0.651884 0.361579,0.02519 0.660482,-0.229173 0.68383,-0.562181 0.02336,-0.333007 -0.237464,-0.626999 -0.598734,-0.652497 z m -8.044699,0.222722 c -0.04397,-0.0038 -0.08821,-0.0034 -0.132099,0.0013 -0.360352,0.03778 -0.610108,0.340687 -0.575387,0.672773 0.03471,0.332085 0.34222,0.576004 0.702572,0.538218 0.360343,-0.03778 0.610716,-0.340379 0.575695,-0.672465 -0.03046,-0.290614 -0.270033,-0.51395 -0.570781,-0.539755 z m 4.369945,0.03287 c 0.198763,0 0.31611,0.06482 0.453742,0.250371 0.30996,0.417487 0.424245,0.991649 0.654641,3.283685 0.106299,1.056469 0.201225,1.98422 0.293998,1.98422 0.07652,0 0.178177,-0.752646 0.334543,-1.508364 0.248528,-1.199932 0.411344,-1.498533 0.815312,-1.497611 0.340383,3.07e-4 0.52839,0.226715 0.787667,0.945876 0.08448,0.234395 0.261429,0.521015 0.310277,0.596587 0.135471,0.259278 0.301975,0.18985 0.740046,0.111821 0.240852,-0.09308 0.474937,0.461111 0.177877,0.59966 -0.17726,0.09124 -0.552356,0.196916 -0.956941,0.183399 -0.08694,-0.01505 -0.175407,-0.04823 -0.233476,-0.09554 -0.348978,-0.283855 -0.450045,-0.738514 -0.648808,-1.19471 -0.106291,-0.310274 -0.168348,-0.362499 -0.224255,-0.188315 -0.01752,0.05437 -0.09646,0.410115 -0.175416,0.790432 -0.262347,1.263523 -0.508414,2.117238 -0.969224,2.117238 -0.215043,0 -0.342837,-0.08356 -0.460801,-0.301672 -0.203061,-0.375094 -0.304128,-1.339096 -0.440525,-2.776802 -0.125032,-1.318512 -0.186472,-1.750746 -0.309359,-2.175299 -0.09953,-0.344067 -0.172337,-0.328707 -0.264191,0.05407 -0.131792,0.550507 -0.202443,1.178428 -0.29676,2.641633 -0.100449,1.555979 -0.173872,2.244727 -0.295833,2.774958 -0.09953,0.433155 -0.252517,0.747423 -0.412571,0.848185 -0.120117,0.07527 -0.377249,0.06912 -0.48661,-0.01198 h -3.09e-4 c -0.222411,-0.164968 -0.420557,-0.57969 -0.560333,-1.171977 -0.04181,-0.177563 -0.129029,-0.670008 -0.193848,-1.094254 -0.235929,-1.547071 -0.34499,-2.058255 -0.435001,-2.038287 -0.07986,0.01781 -0.196301,0.505655 -0.327784,1.374422 -0.174793,1.154774 -0.269102,1.517887 -0.472162,1.81618 -0.11582,0.169883 -0.255288,0.246991 -0.446983,0.246991 -0.400588,0 -0.590748,-0.27556 -0.867231,-1.257378 -0.156974,-0.556651 -0.252209,-0.808864 -0.382464,-0.906862 -0.04448,-0.03478 -0.09482,-0.06121 -0.148689,-0.07803 -0.105064,-0.03226 -0.227326,-0.0129 -0.435,-0.03164 -0.297369,-3.07e-4 -0.35512,-0.709023 0.0017,-0.711788 0.132717,-0.01106 0.337922,-0.0046 0.501355,0.0028 0.200915,0.0089 0.393837,0.11643 0.582153,0.347753 0.179404,0.2218 0.317028,0.549278 0.495514,1.182114 0.176951,0.626693 0.164969,0.597509 0.236855,0.584914 0.09124,-0.01567 0.169575,-0.334237 0.313348,-1.269668 0.194458,-1.266287 0.296751,-1.652134 0.51978,-1.952577 0.266039,-0.454967 0.57539,-0.401821 0.744047,-0.185858 0.246376,0.264808 0.434074,0.772922 0.683212,2.428128 0.137015,0.911161 0.184936,1.171361 0.28355,1.53386 0.05925,0.218114 0.08786,0.278019 0.1321,0.278019 0.03104,0 0.05649,-0.0071 0.05649,-0.01628 0,-0.0092 0.01994,-0.109057 0.04423,-0.222415 0.07376,-0.344681 0.157291,-1.186107 0.25129,-2.523973 0.159745,-2.280363 0.301675,-3.088612 0.619011,-3.527912 0.129338,-0.179098 0.232249,-0.238696 0.412579,-0.238696 z m -6.991922,6.330211 c -0.249756,-6.14e-4 -0.477082,0.14162 -0.571089,0.373865 -0.125024,0.30966 0.03163,0.669701 0.367728,0.805484 0.336078,0.135784 0.699192,-0.01413 0.824224,-0.323791 0.125024,-0.309659 -0.03196,-0.669394 -0.368029,-0.805177 -0.08027,-0.03279 -0.166111,-0.04989 -0.252834,-0.05038 z m 12.788526,0.107214 c -0.08637,-0.0078 -0.173447,9.18e-4 -0.256515,0.0258 -0.347451,0.102605 -0.53822,0.445443 -0.443603,0.765855 0.09462,0.320411 0.441142,0.504426 0.788593,0.401821 0.347443,-0.102606 0.538521,-0.445751 0.443904,-0.766163 -0.07093,-0.240232 -0.283859,-0.403664 -0.532379,-0.427011 z m -12.323728,3.51808 c 1.4798,0.191388 1.782392,0.544977 2.667129,1.375652 0.134211,-0.05518 0.277918,-0.08357 0.423018,-0.08356 0.595968,0 1.092717,0.471863 1.092717,1.058619 0,0.586757 -0.496749,1.058619 -1.092717,1.058619 -0.595972,0 -1.092412,-0.471862 -1.092412,-1.058619 0,-0.197838 0.05991,-0.380623 0.1576,-0.538526 -0.757869,-0.834668 -1.236494,-0.984275 -2.155335,-1.097019 -0.195993,-0.02397 -0.357581,-0.160052 -0.357581,-0.357584 0,-0.19753 0.160362,-0.357583 0.357581,-0.357582 z m 12.150156,0 c 0.197528,0 0.357582,0.160053 0.357582,0.357583 0,0.197532 -0.164969,0.267574 -0.357582,0.311196 -0.908393,0.204905 -1.446614,0.50197 -2.155335,1.143407 0,0 0.157909,0.340688 0.157909,0.538526 0,0.587064 -0.49644,1.058619 -1.092412,1.058619 -0.595972,0 -1.092721,-0.471862 -1.092721,-1.058619 0,-0.586756 0.496749,-1.058619 1.092721,-1.058619 0.149297,0 0.245758,0.0298 0.376323,0.08356 0.817156,-0.787359 1.641689,-1.195324 2.713515,-1.375653 z m -9.0597,1.741838 c -0.362496,0 -0.642667,0.274945 -0.642667,0.608874 0,0.333929 0.280479,0.609182 0.642667,0.609182 0.362192,0 0.642972,-0.274946 0.642972,-0.609182 0,-0.334236 -0.28048,-0.608874 -0.642972,-0.608874 z m 5.969862,0 c -0.362505,0 -0.642976,0.274945 -0.642976,0.608874 0,0.333929 0.280471,0.609182 0.642976,0.609182 0.362496,0 0.642358,-0.274946 0.642358,-0.609182 0,-0.334236 -0.280171,-0.608874 -0.642358,-0.608874 z"
       style="fill:#483d53;stroke-width:0.307202"
       id="path1" />
    <path
       d="m 47.997917,45.405325 c 0,-0.16249 -0.08128,-0.289717 -0.243739,-0.381647 -0.159445,-0.09505 -0.416952,-0.179354 -0.772556,-0.252926 -1.183383,-0.248304 -1.775074,-0.751069 -1.775074,-1.508288 0,-0.441467 0.182425,-0.809371 0.547258,-1.103694 0.367895,-0.297393 0.847671,-0.446087 1.439346,-0.446087 0.631561,0 1.135886,0.148694 1.51296,0.446087 0.380145,0.297386 0.570213,0.68368 0.570213,1.158867 h -1.329 c 0,-0.190093 -0.06133,-0.346442 -0.183969,-0.469037 -0.122654,-0.125717 -0.314249,-0.188575 -0.574802,-0.188575 -0.223821,0 -0.397025,0.05065 -0.519629,0.151759 -0.122654,0.101168 -0.183969,0.229946 -0.183969,0.38632 0,0.147136 0.06901,0.266695 0.206933,0.358683 0.141011,0.08893 0.377074,0.167121 0.708187,0.234569 0.331121,0.06442 0.61009,0.137949 0.836907,0.2207 0.702079,0.257541 1.05311,0.703598 1.05311,1.338171 0,0.453717 -0.194657,0.821612 -0.583981,1.103695 -0.389323,0.278978 -0.892089,0.418454 -1.508287,0.418454 -0.416935,0 -0.787893,-0.0736 -1.112873,-0.220701 -0.321884,-0.150198 -0.574819,-0.354076 -0.758787,-0.611619 -0.183919,-0.260603 -0.275882,-0.541108 -0.275882,-0.841505 h 1.260034 c 0.01227,0.236071 0.09962,0.416952 0.262113,0.542668 0.162499,0.125708 0.38017,0.188566 0.653023,0.188566 0.25442,0 0.446023,-0.04756 0.574794,-0.142572 0.131841,-0.0981 0.197753,-0.225323 0.197753,-0.381638 z m -3.513332,-1.066879 c 0,0.766406 -0.174748,1.381078 -0.524227,1.844024 -0.346409,0.459835 -0.815446,0.689747 -1.407121,0.689747 -0.50279,0 -0.909002,-0.174739 -1.218629,-0.524218 v 2.345286 h -1.329 v -6.888611 h 1.232414 l 0.04598,0.48749 c 0.321867,-0.386265 0.74189,-0.579402 1.260042,-0.579402 0.613144,0 1.089867,0.226859 1.430159,0.680569 0.3403,0.453708 0.510442,1.079128 0.510442,1.876249 z m -1.328992,-0.09658 c 0,-0.462945 -0.08278,-0.82011 -0.248337,-1.071484 -0.16249,-0.251358 -0.400096,-0.377041 -0.712785,-0.377041 -0.416927,0 -0.703573,0.159403 -0.859946,0.478225 v 2.03717 c 0.16249,0.32806 0.452198,0.492093 0.869133,0.492093 0.634623,0 0.951935,-0.519629 0.951935,-1.558879 z M 39.08131,43.584255 c 0,0.659105 -0.116504,1.237003 -0.349513,1.733669 -0.233,0.496673 -0.567175,0.879872 -1.002526,1.149614 -0.43228,0.269782 -0.928921,0.404677 -1.489922,0.404677 -0.554875,0 -1.049989,-0.13336 -1.48534,-0.400088 -0.435343,-0.266729 -0.772572,-0.646874 -1.011705,-1.140427 -0.239125,-0.496674 -0.360219,-1.066887 -0.363281,-1.710638 v -0.331055 c 0,-0.659114 0.11804,-1.238539 0.354094,-1.738262 0.239124,-0.502794 0.574835,-0.887555 1.007124,-1.154285 0.435334,-0.269785 0.931983,-0.40468 1.489921,-0.40468 0.557939,0 1.053052,0.134895 1.485341,0.40468 0.435342,0.26673 0.771045,0.651491 1.007116,1.154285 0.239124,0.499723 0.358691,1.077621 0.358691,1.733664 z m -1.39795,-0.303519 c 0,-0.70207 -0.125683,-1.235497 -0.377049,-1.600277 -0.251366,-0.36484 -0.610057,-0.547253 -1.076065,-0.547253 -0.462946,0 -0.820102,0.180882 -1.071468,0.542659 -0.251366,0.35872 -0.378584,0.886028 -0.381647,1.581924 v 0.326466 c 0,0.683646 0.125683,1.214014 0.377049,1.591097 0.251375,0.377082 0.61312,0.565623 1.085245,0.565623 0.462945,0 0.818574,-0.180889 1.066886,-0.54266 0.248304,-0.364849 0.373995,-0.895209 0.377049,-1.591105 z m -7.091033,1.876258 0.924315,-3.352322 h 1.388746 L 31.2269,46.78031 h -1.269229 l -1.678496,-4.975636 h 1.388754 z m -2.961492,1.623318 h -1.333581 v -4.975638 h 1.333581 z M 26.21904,40.517079 c 0,-0.199279 0.06592,-0.363303 0.197749,-0.492075 0.134894,-0.128772 0.317313,-0.193162 0.547256,-0.193162 0.226882,0 0.407769,0.06439 0.542664,0.193162 0.134893,0.128772 0.202341,0.292796 0.202341,0.492075 0,0.202346 -0.06897,0.367903 -0.206932,0.496674 -0.134894,0.128772 -0.314252,0.193155 -0.538073,0.193155 -0.223821,0 -0.40471,-0.06439 -0.542665,-0.193155 -0.134893,-0.128771 -0.20234,-0.294328 -0.20234,-0.496674 z m -2.16582,6.263233 c -0.06132,-0.119591 -0.105789,-0.26828 -0.133392,-0.44609 -0.321876,0.358725 -0.740359,0.538079 -1.255448,0.538079 -0.487433,0 -0.892116,-0.14102 -1.214047,-0.423052 -0.318815,-0.282025 -0.478223,-0.637662 -0.478223,-1.06688 0,-0.527281 0.194662,-0.931958 0.583985,-1.214048 0.39244,-0.282031 0.958059,-0.424578 1.696861,-0.427641 h 0.611613 v -0.285144 c 0,-0.229946 -0.0598,-0.413889 -0.179384,-0.551847 -0.116475,-0.137957 -0.301953,-0.206932 -0.556438,-0.206932 -0.223821,0 -0.400091,0.05365 -0.528808,0.160938 -0.125712,0.107292 -0.188568,0.254462 -0.188568,0.441501 h -1.32899 c 0,-0.288156 0.0889,-0.554884 0.266701,-0.800184 0.177799,-0.245249 0.429195,-0.436853 0.754187,-0.574811 0.324992,-0.141008 0.689801,-0.211518 1.094428,-0.211518 0.613145,0 1.099048,0.154814 1.457709,0.464453 0.361776,0.306573 0.542664,0.738828 0.542664,1.296766 v 2.156721 c 0.003,0.472124 0.06897,0.82929 0.197749,1.071477 v 0.07819 z m -1.099102,-0.924316 c 0.196219,0 0.377107,-0.04289 0.542664,-0.128796 0.165556,-0.08893 0.28818,-0.206957 0.36787,-0.354093 v -0.855282 h -0.49667 c -0.665288,0 -1.019384,0.229913 -1.062291,0.689755 l -0.0046,0.07819 c 0,0.165553 0.05824,0.301975 0.174712,0.409275 0.116475,0.107292 0.275882,0.16093 0.478224,0.16093 z M 18.37857,44.84888 19.27984,40.084769 h 1.374985 l -1.485337,6.695543 H 17.78073 l -1.089838,-4.47897 -1.089838,4.47897 h -1.388757 l -1.48542,-6.695543 h 1.374984 l 0.905944,4.754932 1.103693,-4.754932 h 1.168052 z"
       style="fill:#483d53;stroke-width:0.0819852"
       id="path1-6" />
  </g>
</svg>
